PathFileType	4	(X/Y/Z)	TestModele.trc	
DataRate	CameraRate	NumFrames	NumMarkers	Units	OrigDataRate	OrigDataStartFrame	OrigNumFrames	
100	100	25	11	m	100	33	0.99	
Frame#	Time	STER	XIPH	T10	C7	CLAV_SC	CLAV_post	CLAV_AC	SCAP_IA	SCAP_RS	SCAP_SA	ACRO_tip	
Frame#	s	x1	y1	z1	x2	y2	z2	x3	y3	z3	x4	y4	z4	x5	y5	z5	x6	y6	z6	x7	y7	z7	x8	y8	z8	x9	y9	z9	x10	y10	z10	x11	y11	z11	

34	0.3300000	-0.1163277830	-0.5430867807	-0.1125910489	-0.0477351926	-0.6752988435	-0.0628557144	-0.0841663191	-0.7008056898	-0.2799089988	-0.1766827057	-0.4813358147	-0.2406347416	-0.1719472554	-0.5226121792	-0.1140722094	-0.2200327425	-0.5566859007	-0.1295845751	-0.2727204832	-0.5678178241	-0.1571761039	-0.1491002369	-0.6333792413	-0.2982024209	-0.2165848967	-0.5320879273	-0.2693541623	-0.2441759195	-0.5171299565	-0.2353016964	-0.3044981404	-0.5870778724	-0.1750058834	
35	0.3400000	-0.1246669246	-0.5153343809	-0.1023607312	-0.1322066233	-0.6614448344	-0.0453215798	-0.1294186900	-0.6798704021	-0.2660990250	-0.1238740155	-0.4402664227	-0.2373246475	-0.1641362844	-0.4728748934	-0.1145984558	-0.2182814831	-0.4850962593	-0.1397540065	-0.2646536150	-0.4754875032	-0.1774170837	-0.1568493482	-0.5980955143	-0.2909420716	-0.1809496847	-0.4760319244	-0.2780585388	-0.2053536675	-0.4480579071	-0.2503732387	-0.2981944725	-0.4819988120	-0.2014276952	
36	0.3500000	-0.1189546707	-0.4834521406	-0.0940947239	-0.1714843778	-0.6165000694	-0.0293069551	-0.2331223034	-0.6211968273	-0.2420712873	-0.1216684218	-0.4075060462	-0.2285414124	-0.1388063968	-0.4278089085	-0.0979962454	-0.1981356297	-0.4162435980	-0.1057520026	-0.2457041647	-0.3871853221	-0.1292905088	-0.2340563039	-0.5382405584	-0.2583902798	-0.2051454762	-0.4167845609	-0.2507132793	-0.2071354279	-0.3823725210	-0.2197871179	-0.2852524561	-0.3791927379	-0.1419752600	
37	0.3600000	-0.0970837549	-0.4557068164	-0.0924580108	-0.1209701182	-0.5939142076	-0.0218411917	-0.2906682759	-0.5639533957	-0.1611065480	-0.1645762095	-0.3607319622	-0.1938267998	-0.1083349840	-0.3991298657	-0.0793180747	-0.1592921040	-0.3848827424	-0.0490813842	-0.2081718868	-0.3514237783	-0.0367333175	-0.2912397144	-0.4841302224	-0.1599839630	-0.2533344176	-0.3649265429	-0.1599303011	-0.2331039491	-0.3348011991	-0.1311593493	-0.2470034666	-0.3411253273	-0.0219170720	
38	0.3700000	-0.0722524876	-0.4210300367	-0.1068512925	-0.0197598230	-0.5687007218	-0.0970296127	-0.2407843762	-0.5807231509	-0.1067023841	-0.2048802839	-0.3420810192	-0.1121433645	-0.0842326660	-0.3778107894	-0.0683396192	-0.1059701161	-0.3932875422	-0.0135507568	-0.1415911200	-0.3872787926	0.0349904546	-0.2526265268	-0.5158298317	-0.0695752920	-0.2524102695	-0.3950305167	-0.0371128468	-0.2258736073	-0.3653438838	-0.0134678632	-0.1630654817	-0.3986717691	0.0708615963	
39	0.3800000	-0.0605341460	-0.3632750710	-0.1185593813	0.0458076173	-0.4326712368	-0.2109399964	-0.1228674528	-0.5749208589	-0.1908472068	-0.1973130459	-0.3915393349	-0.0526522522	-0.0687090081	-0.3575657692	-0.0603424180	-0.0496923641	-0.4035971463	-0.0252233971	-0.0533746492	-0.4423603866	0.0210914188	-0.1332587748	-0.5568885127	-0.1216700542	-0.1688943040	-0.4943657308	-0.0193600232	-0.1502005379	-0.4672281008	0.0131771556	-0.0449902405	-0.4785866174	0.0443034108	
40	0.3900000	-0.0657284469	-0.3013150035	-0.0986032249	0.0227846386	-0.2163436028	-0.1966025680	-0.0400277553	-0.3968829742	-0.3086297656	-0.1414366306	-0.4358090308	-0.0930612678	-0.0557337406	-0.3407986897	-0.0559001255	-0.0052852195	-0.3743596461	-0.0624174091	0.0275440340	-0.4251078522	-0.0595766544	-0.0272037370	-0.4346646294	-0.2516334850	-0.0495801288	-0.4942013712	-0.1439255229	-0.0372746904	-0.4914370681	-0.0993664535	0.0612798684	-0.4522466392	-0.0690650415	
41	0.4000000	-0.0757050837	-0.2729409801	-0.0577366717	-0.0590234463	-0.1199812085	-0.0263741505	-0.0624678895	-0.1392194638	-0.2470729946	-0.0820421913	-0.3696735161	-0.1779603935	-0.0398835258	-0.3195806169	-0.0619167955	0.0171677024	-0.3059289198	-0.0784290512	0.0693136677	-0.3147043680	-0.1078399337	-0.0176694453	-0.1891481548	-0.2372399648	0.0177970590	-0.3089654120	-0.2315581008	0.0374433000	-0.3381039226	-0.2013993828	0.1088582970	-0.3027087860	-0.1251488166	
42	0.4100000	-0.0736879470	-0.2768761217	-0.0377673687	-0.1151389647	-0.2288830450	0.1058886587	-0.1616930035	-0.0620960702	-0.0323313867	-0.0671970068	-0.2251714432	-0.1831481778	-0.0239257886	-0.2789923969	-0.0692065010	0.0168174819	-0.2370198102	-0.0521139898	0.0599653055	-0.1955925453	-0.0612385297	-0.0975492060	-0.0722474423	-0.0487786856	-0.0136020153	-0.1091614665	-0.1338466327	0.0225389740	-0.1379514785	-0.1369353158	0.0859987770	-0.1604474095	-0.0495633934	
43	0.4200000	-0.0539317016	-0.2710618304	-0.0494823960	-0.0855961922	-0.3744276770	0.0644098262	-0.2371731889	-0.2136860086	0.0810376514	-0.1032282377	-0.1351496558	-0.1037854166	-0.0173751928	-0.2255367460	-0.0567824354	-0.0007810072	-0.2011600939	-0.0034506635	0.0129717095	-0.1558266976	0.0341918146	-0.1787946595	-0.1810897994	0.0878378858	-0.1069865511	-0.0931424574	0.0353479606	-0.0628655495	-0.0872118972	0.0225909417	0.0197602542	-0.1375611457	0.0755531554	
44	0.4300000	-0.0271187367	-0.2341686885	-0.0590473345	0.0089414462	-0.3856540735	-0.0387885630	-0.2104954933	-0.3689605636	-0.0131232023	-0.1487996914	-0.1391979816	-0.0540079072	-0.0270148726	-0.1854531328	-0.0261564029	-0.0295230488	-0.1996891859	0.0330458767	-0.0472343475	-0.1924994759	0.0904551805	-0.1807792016	-0.3328531038	0.0368578819	-0.1807402032	-0.2141811719	0.0763965046	-0.1502597398	-0.1815172698	0.0885861198	-0.0530112565	-0.2073495117	0.1337800807	
45	0.4400000	-0.0104183383	-0.1895061270	-0.0432171763	0.0866728079	-0.3128860867	-0.0462620628	-0.0988342253	-0.3758964395	-0.1497356851	-0.1536279490	-0.1498234955	-0.0852574177	-0.0483746215	-0.1658029656	-0.0052020302	-0.0644608187	-0.2077672320	0.0359574239	-0.1028868604	-0.2364579129	0.0728558569	-0.1091878286	-0.3668200400	-0.0804180886	-0.1882605187	-0.2930336340	-0.0175737762	-0.1873216517	-0.2628432710	0.0175294484	-0.1146662444	-0.2724709142	0.0999646752	
46	0.4500000	-0.0115015148	-0.1591436038	-0.0185154515	0.0814710999	-0.2804760397	0.0174443787	0.0010718079	-0.3203470552	-0.1851295841	-0.1055804368	-0.1106731647	-0.1309914877	-0.0667526132	-0.1427036692	-0.0076901474	-0.0980130396	-0.1919511879	0.0099545034	-0.1465996325	-0.2278942831	0.0128950972	-0.0465602537	-0.3296868247	-0.1295249919	-0.1570569090	-0.2725255970	-0.1165090459	-0.1805400883	-0.2489960273	-0.0842681479	-0.1667191095	-0.2690778963	0.0233086405	
47	0.4600000	-0.0214575645	-0.1339308417	-0.0043328787	0.0050336590	-0.2779916591	0.0522645809	0.0034456302	-0.2961615766	-0.1685459413	-0.0420479283	-0.0609617101	-0.1388788875	-0.0677211842	-0.0993024435	-0.0139771635	-0.1171192146	-0.1349665900	-0.0126470124	-0.1719277596	-0.1533914907	-0.0304727416	-0.0642949973	-0.2918669615	-0.1305946499	-0.1486008766	-0.2032983338	-0.1569470412	-0.1736292441	-0.1712903739	-0.1347288689	-0.2064417839	-0.1858862933	-0.0304342731	
48	0.4700000	-0.0232206731	-0.1027157026	0.0040903409	-0.0638869699	-0.2423879183	0.0632215590	-0.0862552020	-0.2579275361	-0.1566605387	-0.0149389653	-0.0287218012	-0.1312145061	-0.0481425059	-0.0504108538	-0.0041403270	-0.1080269901	-0.0593601491	0.0027607400	-0.1665626328	-0.0507453541	-0.0099110410	-0.1452849467	-0.2259005853	-0.1088533238	-0.1834444751	-0.1095319378	-0.1343193779	-0.1887097976	-0.0690225250	-0.1125056273	-0.2121658274	-0.0641072517	-0.0048361279	
49	0.4800000	-0.0075949382	-0.0729584121	0.0104016735	-0.0531323095	-0.2046096267	0.0828784421	-0.1764776053	-0.1874659865	-0.1003754475	-0.0420749123	0.0126184758	-0.1134482896	-0.0179398999	-0.0155645881	0.0143538332	-0.0668374762	-0.0112055470	0.0504632760	-0.1195807299	0.0121451382	0.0687418120	-0.1965660069	-0.1513094723	-0.0230185792	-0.2124323590	-0.0273097742	-0.0273389237	-0.1956259891	0.0107087616	-0.0069253810	-0.1584945232	0.0087970060	0.0969238644	
50	0.4900000	0.0181397320	-0.0440749396	0.0028471128	0.0352766573	-0.1929086942	0.0498940654	-0.1753042012	-0.1711531397	-0.0154691684	-0.0905005332	0.0522211670	-0.0498353166	0.0088638368	0.0082900014	0.0269405001	-0.0057345965	-0.0049551764	0.0846060623	-0.0360333645	0.0021366081	0.1364992357	-0.1413128636	-0.1584984870	0.0707377223	-0.1662912686	-0.0432727408	0.1125161656	-0.1434184235	-0.0060426453	0.1278565960	-0.0469097117	-0.0152621245	0.1804696749	
51	0.5000000	0.0370984378	0.0032033206	-0.0142374752	0.1269114451	-0.1153205928	-0.0646783534	-0.0764946963	-0.1981672524	-0.0354837121	-0.1073390467	0.0313489517	0.0326317282	0.0256025006	0.0309318945	0.0357566409	0.0531001459	-0.0044880150	0.0770261887	0.0586516463	-0.0321027432	0.1305781992	0.0011092475	-0.1975451246	0.0272198400	-0.0328923927	-0.1389604287	0.1323771198	-0.0206881904	-0.1017008366	0.1570217157	0.0831510355	-0.0644993093	0.1577482586	
52	0.5100000	0.0386912773	0.0681560500	-0.0100800242	0.1444361351	0.0845485662	-0.1250055955	0.0347273641	-0.1034351160	-0.1664311341	-0.0692989199	-0.0307799534	0.0389186522	0.0365679694	0.0493584879	0.0450044765	0.0922748777	0.0255867624	0.0517506975	0.1326072651	-0.0146524945	0.0721298762	0.1281933155	-0.0858000033	-0.1187691711	0.1191545635	-0.1334290083	-0.0034604096	0.1202014111	-0.1188074444	0.0404678255	0.1791408009	-0.0305366945	0.0704926382	
53	0.5200000	0.0286409593	0.1145817755	0.0261371953	0.0798017974	0.2587590188	-0.0092756223	0.0615472489	0.1493153142	-0.2010536227	-0.0044741899	-0.0199411431	-0.0421127645	0.0499457521	0.0639697066	0.0453283256	0.1096089081	0.0763824147	0.0450144127	0.1682129164	0.0636384544	0.0369912034	0.1495982762	0.1736471935	-0.1340041351	0.1976313340	0.0626530542	-0.1020751820	0.2029236800	0.0365685654	-0.0641783962	0.2142853842	0.0817346954	0.0358115968	
54	0.5300000	0.0237119063	0.1210338376	0.0598202161	0.0015854493	0.2324423383	0.1682505732	-0.0137218720	0.3322755600	-0.0289522874	0.0339738367	0.1045897356	-0.0933965260	0.0674134860	0.0923172379	0.0345057732	0.1144813023	0.1214209234	0.0600295311	0.1697605791	0.1460090232	0.0609444610	0.0714022608	0.3253377537	0.0560624785	0.1684873434	0.2735484005	-0.0034243374	0.1921172787	0.2337212747	-0.0034697649	0.2022671663	0.1725670378	0.0877673187	
55	0.5400000	0.0360647681	0.1172039288	0.0597306997	-0.0093494592	0.0736353324	0.2035983536	-0.1130414860	0.2644485986	0.1596869032	0.0176053332	0.2329508719	-0.0408326146	0.0808838163	0.1430924949	0.0335058189	0.1142737243	0.1553111368	0.0830001104	0.1515058782	0.1885933459	0.1171654652	-0.0139185495	0.2277898885	0.2317501268	0.0807067150	0.2941728882	0.1839412541	0.1187336267	0.2872655728	0.1584301028	0.1739382777	0.1918305796	0.1618469608	
56	0.5500000	0.0618741868	0.1411439120	0.0442326605	0.0644097940	-0.0044485549	0.1030117449	-0.1357232549	0.0787670133	0.1489670098	-0.0306649682	0.2645228382	0.0361560837	0.0799629716	0.1945974011	0.0574062742	0.1055038059	0.1812558315	0.1111048250	0.1203277539	0.1916255789	0.1688450112	-0.0213724756	0.0505168073	0.2159606103	0.0114719360	0.1631905827	0.2592294975	0.0428582730	0.1960958354	0.2504706132	0.1422794108	0.1715370926	0.2094904734	
57	0.5600000	0.0848673031	0.1865607464	0.0488407085	0.1606175821	0.0490917057	0.0440726329	-0.0527468517	0.0050955629	0.0037004612	-0.0580310592	0.2440400174	0.0375589890	0.0631949820	0.2241295449	0.0871568443	0.0797578709	0.1933798431	0.1370967342	0.0728469625	0.1726478325	0.1935204285	0.0431402750	-0.0125795201	0.1086500317	-0.0094576488	0.0534488194	0.2009541401	-0.0043129075	0.0945087886	0.2217432339	0.0942263575	0.1435426271	0.2290069981	
58	0.5700000	0.0914802952	0.2238001174	0.0730732377	0.1958448692	0.1077131586	0.0901152495	0.0660108477	0.0514305229	-0.0803703693	-0.0312548201	0.2617222341	-0.0126535974	0.0420875226	0.2431969355	0.0959738818	0.0387508883	0.2008489585	0.1396703551	0.0103105217	0.1618442630	0.1761530835	0.0938268379	0.0111331043	0.0625985121	-0.0177461025	0.0325639621	0.1149294679	-0.0384834985	0.0649168380	0.1407718300	0.0183410443	0.1268537630	0.2121991008	
